<?xml version="1.0" encoding="UTF-8"?><svg id="Layer_1" xmlns="http://www.w3.org/2000/svg" viewBox="0 0 887.36714 400"><defs><style>.cls-1{fill:#fff;}</style></defs><path class="cls-1" d="M38.515204,366.642946h-14.561624v3.373421h9.941671c-.140353,2.734356-.725157,5.112513-1.777805,7.113517-1.052648,2.001004-2.584834,3.541044-4.596561,4.609643-2.011726,1.068599-4.573169,1.613375-7.660935,1.613375-3.380168-.020953-6.187228-.722876-8.444572-2.105769-2.257344-1.393369-3.953276-3.300085-5.0761-5.741101-1.13452-2.441016-1.684236-5.26966-1.660844-8.485934.011696-3.22675.584804-6.065871,1.719324-8.517363,1.122824-2.461968,2.80706-4.379161,5.041012-5.741101,2.233952-1.372416,5.041012-2.04291,8.42118-2.021957,3.193031,0,5.859738.701923,8.000121,2.116245,2.152079,1.414322,3.695962,3.300085,4.631649,5.657289l4.432816-.963834c-1.13452-3.237227-3.146247-5.814436-6.035179-7.742105-2.888933-1.917192-6.619983-2.881027-11.216544-2.881027-4.105325,0-7.637543.82764-10.561564,2.493398-2.935717,1.665757-5.193061,4.002008-6.760336,7.019229-1.567275,3.006744-2.350913,6.537312-2.350913,10.581226,0,3.04865.456147,5.824913,1.356746,8.297358.888902,2.472445,2.198864,4.58869,3.906492,6.338259,1.707628,1.760046,3.777835,3.101033,6.21062,4.054391,2.432785.942882,5.169669,1.424799,8.198955,1.424799,4.233982,0,7.754503-.796211,10.561564-2.378157,2.795364-1.581946,4.900659-3.750573,6.304189-6.495406,1.391834-2.734356,2.093599-5.856342,2.093599-9.345004,0-.188576-.011696-.523823-.023392-.974311,0-.460964-.035088-.890499-.093569-1.299081Z"/><rect class="cls-1" x="45.21706" y="346.905293" width="4.397727" height="39.422925"/><path class="cls-1" d="M80.387183,358.502736c-2.292432-1.299081-5.052708-1.948622-8.280827-1.948622-3.157943,0-5.871434.639064-8.163866,1.917192-2.280736,1.278128-4.046845,3.059127-5.28663,5.353472-1.239785,2.283869-1.847981,4.955366-1.847981,7.99354,0,2.985792.608196,5.62586,1.824589,7.941158,1.216393,2.304822,2.959109,4.106773,5.239846,5.416331,2.26904,1.299081,5.01762,1.959098,8.234043,1.959098,3.193031,0,5.929914-.649541,8.234043-1.938145,2.292432-1.288605,4.046845-3.08008,5.263238-5.374425,1.216393-2.294345,1.824589-4.965843,1.824589-8.004017,0-2.985792-.5965-5.62586-1.801197-7.930681-1.216393-2.294345-2.959109-4.08582-5.239846-5.384901ZM80.129869,380.147105c-1.754413,2.137198-4.432816,3.205797-8.023513,3.205797-3.497129,0-6.140444-1.058123-7.941641-3.153415-1.789501-2.105769-2.690099-4.892508-2.690099-8.381169,0-2.252439.385971-4.242967,1.146216-5.971583.771942-1.71814,1.94155-3.069603,3.508825-4.043914,1.567275-.974311,3.555609-1.466705,5.976699-1.466705,3.567306,0,6.234013,1.03717,8.011817,3.111509,1.766109,2.074339,2.643315,4.861078,2.643315,8.370693,0,3.415326-.877206,6.191589-2.631619,8.328787Z"/><path class="cls-1" d="M116.329249,358.565594c-2.116991-1.340987-4.655041-2.011481-7.602454-2.011481-3.040982,0-5.590728.660017-7.672631,1.990528-.995629.635135-1.865525,1.397953-2.631619,2.260297v-13.103434h-4.432816v38.626714h3.953276v-4.155227c.862586,1.125565,1.843595,2.135889,3.052678,2.929481,2.058511,1.351464,4.573169,2.032434,7.543974,2.032434,3.01759,0,5.590728-.68097,7.731111-2.032434,2.128687-1.351464,3.766139-3.174368,4.912355-5.479189,1.13452-2.304822,1.695932-4.91346,1.695932-7.804964,0-2.881027-.561412-5.468713-1.684236-7.784011-1.13452-2.304822-2.74858-4.127726-4.865571-5.468713ZM117.089494,377.758472c-.748549,1.760046-1.871373,3.153415-3.368472,4.169632-1.497099,1.016217-3.368472,1.529563-5.625816,1.529563-2.292432,0-4.198894-.50287-5.695993-1.50861-1.497099-.995264-2.608227-2.378157-3.34508-4.138202-.736853-1.760046-1.111128-3.76105-1.111128-5.992536,0-2.273392.374275-4.284873,1.111128-6.023965.736853-1.739093,1.847981-3.101033,3.333384-4.08582,1.485403-.984787,3.356776-1.477181,5.61412-1.477181,2.315825,0,4.233982.513347,5.731081,1.529563,1.508795,1.016217,2.631619,2.39911,3.368472,4.159155.748549,1.749569,1.111128,3.719144,1.111128,5.898248,0,2.200057-.374275,4.180108-1.122824,5.940154Z"/><path class="cls-1" d="M153.990638,362.347597c-.853814-1.875287-2.315825-3.310562-4.386031-4.305826-2.058511-.984787-4.573169-1.487658-7.532278-1.487658-3.567306,0-6.467934.712399-8.713582,2.147675-2.233952,1.435275-3.719355,3.446756-4.456208,6.034442l4.280767,1.120981c.619892-1.927669,1.695932-3.341991,3.216423-4.23249,1.532187-.890499,3.40356-1.340987,5.61412-1.340987,3.216423,0,5.473767.691446,6.772032,2.063863,1.182766,1.260449,1.729558,3.211035,1.785115,5.697886-1.073116.134884-2.099447.268459-3.387478.409892-1.906462.199053-3.859708.440011-5.836346.722876-1.988334.272388-3.801227.586682-5.438679.953358-1.61406.366676-3.040982.911452-4.269071,1.634328-1.228089.712399-2.198864,1.623852-2.900629,2.744833-.713461,1.120981-1.064344,2.461968-1.064344,4.033438,0,1.54004.409363,2.964839,1.228089,4.26392.818726,1.309558,2.046815,2.357204,3.695962,3.142938,1.649148.785735,3.684266,1.18384,6.128748,1.18384,3.228119,0,6.000091-.660017,8.315916-1.959098,1.691546-.956632,2.945951-2.336251,3.988365-3.918851v5.071262h3.918188v-17.998561c0-1.068599-.05848-2.126722-.175441-3.163891-.116961-1.03717-.385971-1.980051-.783638-2.818168ZM150.166019,376.103191c-.280706,1.456228-.888902,2.755309-1.836285,3.90772-.935687,1.152411-2.175472,2.063863-3.707659,2.72388-1.532187.660017-3.333384.984787-5.391895.984787-1.73102,0-3.122854-.251435-4.175502-.775258-1.052648-.513347-1.801197-1.173364-2.26904-1.959098-.479539-.785735-.713461-1.592422-.713461-2.441016,0-1.03717.280706-1.89624.830422-2.598162.549716-.701923,1.251481-1.257175,2.105295-1.676234.86551-.419058,1.754413-.743829,2.666707-.974311,1.356746-.32477,2.877237-.607635,4.561473-.838117,1.695932-.230482,3.40356-.440011,5.157973-.618111,1.135982-.115896,2.138921-.232446,3.172563-.348342-.001462.474715,0,.858415-.01462,1.542659-.023392,1.120981-.152049,2.147675-.385971,3.069603Z"/><rect class="cls-1" x="163.335809" y="346.905293" width="4.397727" height="39.422925"/><polygon class="cls-1" points="188.692918 386.328218 215.640695 386.328218 215.640695 382.546215 193.090646 382.546215 193.090646 368.622997 212.049998 368.622997 212.049998 364.840995 193.090646 364.840995 193.090646 351.483506 215.640695 351.483506 215.640695 347.701504 188.692918 347.701504 188.692918 386.328218"/><path class="cls-1" d="M248.845877,362.735226c-.619892-1.173364-1.426922-2.210533-2.432785-3.121986-1.017559-.911452-2.245648-1.634328-3.684266-2.168628-1.450314-.544776-3.146247-.806688-5.0761-.806688-2.631619,0-4.970836.513347-7.005954,1.550516-1.574585.802759-2.808522,1.991182-3.859708,3.383897v-4.211538h-3.988365v28.967416h4.432816v-15.452781c0-1.644804.21053-3.111509.631589-4.400114.421059-1.288605,1.029255-2.378157,1.836285-3.279132.80703-.900976,1.812893-1.602899,2.994197-2.084816,1.193001-.481917,2.561442-.722876,4.117021-.722876,1.695932,0,3.146247.282864,4.327551.838117,1.193001.555252,2.152079,1.330511,2.900629,2.346727.748549,1.00574,1.298265,2.18958,1.637452,3.541044.339186,1.340987.502932,2.828645.502932,4.431543v14.782287h4.432816v-15.934698c0-1.299081-.140353-2.608639-.421059-3.928673-.26901-1.309558-.725157-2.556257-1.34505-3.72962Z"/><path class="cls-1" d="M284.203138,372.9393h2.374305c.093569-3.394374-.432755-6.317306-1.590667-8.768798-1.157912-2.451492-2.865541-4.326779-5.122885-5.646813-2.257344-1.309558-4.982532-1.969575-8.175563-1.969575-3.111158,0-5.812954.628588-8.09369,1.875287-2.292432,1.257175-4.058541,3.038174-5.321718,5.342995-1.251481,2.304822-1.883069,5.039178-1.883069,8.203069,0,3.059127.643285,5.720148,1.918158,7.99354,1.274873,2.273392,3.064374,4.033438,5.368502,5.280137,2.315825,1.257175,5.041012,1.885763,8.198955,1.885763,3.122854,0,5.941611-.701923,8.42118-2.084816,2.491266-1.382893,4.374335-3.341991,5.649208-5.856342l-4.105325-1.424799c-.994167,1.812428-2.362609,3.184844-4.081933,4.148679-1.73102.953358-3.754443,1.435275-6.070267,1.435275-3.391864,0-6.011787-1.00574-7.859768-3.017221-1.638914-1.784272-2.429861-4.319576-2.615537-7.396382h22.990115ZM263.82856,363.206667c1.847981-2.021957,4.502992-3.027697,7.976729-3.027697,3.321688,0,5.836346.953358,7.567366,2.87055,1.387448,1.53873,2.103833,3.847481,2.426937,6.589694h-20.43452c.318718-2.608639,1.026331-4.859114,2.463488-6.432547Z"/><path class="cls-1" d="M302.589382,357.74843c-1.122824.345723-2.093599.85907-2.935717,1.519087-.678373.460964-1.309961,1.058123-1.883069,1.780998-.263162.325425-.416673.715673-.631589,1.069909v-4.757623h-3.953276v28.967416h4.397727v-14.457517c0-1.141934.093569-2.304822.280706-3.478185.175441-1.162887.53802-2.273392,1.07604-3.321038.53802-1.047646,1.34505-1.948622,2.421089-2.692451,1.181304-.85907,2.467874-1.36194,3.859708-1.50861,1.40353-.136194,2.690099-.073335,3.871404.188576v-3.698191c-.947383-.220006-1.976638-.293341-3.122854-.230482-1.13452.062859-2.257344.272388-3.380168.618111Z"/><path class="cls-1" d="M336.73025,361.491801c-.878668-1.138006-1.878683-2.158806-3.122854-2.94716-2.070207-1.330511-4.631649-1.990528-7.660935-1.990528-2.959109,0-5.485463.670494-7.602454,2.011481-2.116991,1.340987-3.742747,3.163891-4.865571,5.468713-1.13452,2.315298-1.695932,4.902984-1.695932,7.784011,0,2.891503.573108,5.500142,1.707628,7.804964,1.13452,2.304822,2.771972,4.127726,4.912355,5.479189,2.128687,1.351464,4.713522,2.032434,7.719415,2.032434,2.982501,0,5.497159-.68097,7.543974-2.032434.967851-.635135,1.802659-1.395334,2.549746-2.241963v3.006744c.023392,2.273392-.304098,4.169632-.959079,5.688719-.654981,1.519087-1.707628,2.671498-3.157943,3.446756-1.450314.775258-3.333384,1.162887-5.672601,1.162887-1.695932,0-3.356776-.345723-4.982532-1.058123-1.625756-.701923-2.888933-1.86481-3.789531-3.467709l-3.988365,1.980051c.923991,1.498134,2.058511,2.72388,3.415256,3.666762,1.356746.932405,2.842148,1.623852,4.444512,2.063863,1.61406.429535,3.239815.649541,4.900659.649541,2.631619,0,4.912355-.335247,6.842209-1.016217,1.929854-.68097,3.485433-1.71814,4.666737-3.111509,1.193001-1.393369,1.976638-3.174368,2.350913-5.332519.140353-.733352.233922-1.487658.280706-2.241963.05848-.764782.081873-1.550516.081873-2.378157v-28.558834h-3.918188v4.131ZM332.262346,381.949057c-1.497099,1.00574-3.391864,1.50861-5.684297,1.50861-2.257344,0-4.140414-.513347-5.637512-1.529563s-2.619923-2.409586-3.368472-4.169632c-.748549-1.760046-1.122824-3.740097-1.122824-5.940154,0-2.179104.374275-4.148679,1.099432-5.898248.725157-1.760046,1.847981-3.142938,3.368472-4.159155,1.520491-1.016217,3.426953-1.529563,5.742777-1.529563,2.257344,0,4.128718.492394,5.61412,1.477181,1.485403.984787,2.608227,2.346727,3.34508,4.08582.736853,1.739093,1.111128,3.750573,1.111128,6.023965,0,2.231486-.374275,4.23249-1.111128,5.992536-.736853,1.760046-1.859677,3.142938-3.356776,4.138202Z"/><polygon class="cls-1" points="361.118047 381.181656 350.49654 357.360801 345.829803 357.360801 358.971815 386.249644 353.642787 399.203789 358.040514 399.203789 375.409199 357.360801 370.917903 357.360801 361.118047 381.181656"/><path class="cls-1" d="M428.708252,366.642946h-14.549928v3.373421h9.941671c-.140353,2.734356-.736853,5.112513-1.789501,7.113517-1.040951,2.001004-2.573138,3.541044-4.596561,4.609643-2.011726,1.068599-4.561473,1.613375-7.660935,1.613375-3.368472-.020953-6.187228-.722876-8.444572-2.105769-2.257344-1.393369-3.94158-3.300085-5.0761-5.741101-1.122824-2.441016-1.684236-5.26966-1.660844-8.485934.023392-3.22675.5965-6.065871,1.719324-8.517363,1.13452-2.461968,2.818756-4.379161,5.052708-5.741101,2.233952-1.372416,5.041012-2.04291,8.409484-2.021957,3.193031,0,5.859738.701923,8.011817,2.116245,2.140383,1.414322,3.684266,3.300085,4.619953,5.657289l4.432816-.963834c-1.13452-3.237227-3.146247-5.814436-6.035179-7.742105-2.877237-1.917192-6.619983-2.881027-11.204848-2.881027-4.117021,0-7.637543.82764-10.57326,2.493398-2.935717,1.665757-5.181365,4.002008-6.74864,7.019229-1.567275,3.006744-2.350913,6.537312-2.350913,10.581226,0,3.04865.444451,5.824913,1.34505,8.297358.900598,2.472445,2.198864,4.58869,3.906492,6.338259,1.707628,1.760046,3.777835,3.101033,6.21062,4.054391,2.444481.942882,5.169669,1.424799,8.210651,1.424799,4.233982,0,7.742807-.796211,10.549868-2.378157,2.80706-1.581946,4.912355-3.750573,6.304189-6.495406,1.391834-2.734356,2.093599-5.856342,2.093599-9.345004,0-.188576,0-.523823-.011696-.974311-.011696-.460964-.046784-.890499-.105265-1.299081Z"/><path class="cls-1" d="M444.217259,357.74843c-1.122824.345723-2.093599.85907-2.935717,1.519087-.678373.460964-1.309961,1.058123-1.883069,1.780998-.263162.325425-.416673.715673-.631589,1.069909v-4.757623h-3.953276v28.967416h4.397727v-14.457517c0-1.141934.093569-2.304822.280706-3.478185.175441-1.162887.53802-2.273392,1.07604-3.321038.53802-1.047646,1.34505-1.948622,2.421089-2.692451,1.181304-.85907,2.467874-1.36194,3.859708-1.50861,1.40353-.136194,2.690099-.073335,3.871404.188576v-3.698191c-.947383-.220006-1.976638-.293341-3.122854-.230482-1.13452.062859-2.257344.272388-3.380168.618111Z"/><path class="cls-1" d="M477.586186,358.502736c-2.292432-1.299081-5.052708-1.948622-8.280827-1.948622-3.157943,0-5.871434.639064-8.163866,1.917192-2.280736,1.278128-4.046845,3.059127-5.28663,5.353472-1.239785,2.283869-1.847981,4.955366-1.847981,7.99354,0,2.985792.608196,5.62586,1.824589,7.941158,1.216393,2.304822,2.959109,4.106773,5.239846,5.416331,2.26904,1.299081,5.01762,1.959098,8.234043,1.959098,3.193031,0,5.929914-.649541,8.234043-1.938145,2.292432-1.288605,4.046845-3.08008,5.263238-5.374425,1.216393-2.294345,1.824589-4.965843,1.824589-8.004017,0-2.985792-.5965-5.62586-1.801197-7.930681-1.216393-2.294345-2.959109-4.08582-5.239846-5.384901ZM477.328872,380.147105c-1.754413,2.137198-4.432816,3.205797-8.023513,3.205797-3.497129,0-6.140444-1.058123-7.941641-3.153415-1.789501-2.105769-2.690099-4.892508-2.690099-8.381169,0-2.252439.385971-4.242967,1.146216-5.971583.771942-1.71814,1.94155-3.069603,3.508825-4.043914,1.567275-.974311,3.555609-1.466705,5.976699-1.466705,3.567306,0,6.234013,1.03717,8.011817,3.111509,1.766109,2.074339,2.643315,4.861078,2.643315,8.370693,0,3.415326-.877206,6.191589-2.631619,8.328787Z"/><path class="cls-1" d="M514.007791,372.813582c0,1.623852-.21053,3.08008-.631589,4.379161-.421059,1.299081-1.029255,2.39911-1.836285,3.300085-.818726.900976-1.812893,1.592422-2.994197,2.074339-1.193001.481917-2.561442.722876-4.117021.722876-1.695932,0-3.146247-.272388-4.327551-.82764-1.193001-.555252-2.163775-1.330511-2.912325-2.346727-.748549-1.00574-1.286569-2.18958-1.625756-3.55152-.339186-1.36194-.514628-2.839121-.514628-4.421067v-14.782287h-4.432816v15.934698c0,1.299081.140353,2.608639.421059,3.928673.280706,1.309558.736853,2.556257,1.34505,3.719144.619892,1.173364,1.438618,2.22101,2.444481,3.132462,1.005863.911452,2.233952,1.634328,3.684266,2.168628,1.450314.5343,3.13455.806688,5.0761.806688,2.631619,0,4.970836-.523823,7.005954-1.560993,1.574585-.802759,2.808522-1.985944,3.859708-3.37604v4.214157h3.953276v-28.967416h-4.397727v15.452781Z"/><path class="cls-1" d="M553.961613,364.034307c-1.122824-2.304822-2.74858-4.127726-4.865571-5.468713-2.116991-1.340987-4.643345-2.011481-7.602454-2.011481-3.029286,0-5.590728.660017-7.660935,1.990528-1.238323.784425-2.235414,1.798023-3.111158,2.928826v-4.112666h-3.953276v41.842988h4.42112v-16.374055c.752935.861689,1.603825,1.628435,2.584834,2.272737,2.046815,1.351464,4.561473,2.032434,7.543974,2.032434,3.005894,0,5.590728-.68097,7.719415-2.032434,2.140383-1.351464,3.777835-3.174368,4.912355-5.479189,1.13452-2.304822,1.707628-4.91346,1.707628-7.804964,0-2.881027-.561412-5.468713-1.695932-7.784011ZM549.867983,377.758472c-.748549,1.760046-1.871373,3.153415-3.368472,4.169632-1.497099,1.016217-3.380168,1.529563-5.637512,1.529563-2.292432,0-4.187198-.50287-5.684297-1.50861-1.497099-.995264-2.619923-2.378157-3.356776-4.138202-.736853-1.760046-1.099432-3.76105-1.099432-5.992536,0-2.273392.362579-4.284873,1.099432-6.023965.736853-1.739093,1.859677-3.101033,3.34508-4.08582,1.485403-.984787,3.356776-1.477181,5.61412-1.477181,2.315825,0,4.222286.513347,5.731081,1.529563,1.508795,1.016217,2.631619,2.39911,3.368472,4.159155.736853,1.749569,1.111128,3.719144,1.111128,5.898248,0,2.200057-.374275,4.180108-1.122824,5.940154Z"/><path class="cls-1" d="M.219482,157.490779c-.134128-2.109469-.219482-3.609265-.219482-5.121255C0,68.356559,68.356559,0,152.369525,0h124.373332l-62.55247,63.18653-61.772088-.365804c-49.395722,0-89.585379,40.16527-89.585379,89.548799,0,1.707085.048774,3.426363.146322,5.121255H.219482Z"/><path class="cls-1" d="M152.369525,304.726856c-71.075701,0-133.372108-50.139523-148.699292-119.434979h65.527675c13.473778,33.910023,46.786321,56.614253,83.171617,56.614253,41.226101,0,76.940757-27.935226,86.84185-67.941981l3.084946-12.42514h-97.413583l62.540276-63.210917,87.500297.390191c6.51131,17.180591,9.815738,35.226917,9.815738,53.651241,0,84.012966-68.356559,152.357331-152.369525,152.357331Z"/><path class="cls-1" d="M582.847573,157.490779c-.121935-1.853407-.219482-3.475137-.219482-5.121255C582.628091,68.356559,650.98465,0,734.997616,0h124.373332l-62.540276,63.18653-61.772088-.365804c-49.407916,0-89.597573,40.16527-89.597573,89.548799,0,1.707085.048774,3.426363.146322,5.121255h-62.759759Z"/><path class="cls-1" d="M734.997616,304.726856c-71.087894,0-133.372108-50.139523-148.687099-119.434979h65.527675c13.473778,33.910023,46.786321,56.614253,83.159424,56.614253,41.226101,0,76.940757-27.935226,86.84185-67.941981l3.084946-12.42514h-97.401389l62.528083-63.210917,87.51249.390191c6.499116,17.192784,9.803545,35.239111,9.803545,53.651241,0,84.012966-68.356559,152.357331-152.369525,152.357331Z"/><rect class="cls-1" x="410.371027" y="125.921901" width="113.777211" height="52.870859"/><polygon class="cls-1" points="333.11324 304.726856 333.11324 0 554.241707 0 554.241707 52.883053 385.996293 52.883053 385.996293 251.843803 554.241707 251.843803 554.241707 304.726856 333.11324 304.726856"/></svg>