<?xml version="1.0" encoding="UTF-8"?><svg id="Layer_1" xmlns="http://www.w3.org/2000/svg" viewBox="0 0 887.36714 304.726856"><defs><style>.cls-1{fill:#fff;}</style></defs><path class="cls-1" d="M.219482,157.490779c-.134128-2.109469-.219482-3.609265-.219482-5.121255C0,68.356559,68.356559,0,152.369525,0h124.373332l-62.55247,63.18653-61.772088-.365804c-49.395722,0-89.585379,40.16527-89.585379,89.548799,0,1.707085.048774,3.426363.146322,5.121255H.219482Z"/><path class="cls-1" d="M152.369525,304.726856c-71.075701,0-133.372108-50.139523-148.699292-119.434979h65.527675c13.473778,33.910023,46.786321,56.614253,83.171617,56.614253,41.226101,0,76.940757-27.935226,86.84185-67.941981l3.084946-12.42514h-97.413583l62.540276-63.210917,87.500297.390191c6.51131,17.180591,9.815738,35.226917,9.815738,53.651241,0,84.012966-68.356559,152.357331-152.369525,152.357331Z"/><path class="cls-1" d="M582.847573,157.490779c-.121935-1.853407-.219482-3.475137-.219482-5.121255C582.628091,68.356559,650.98465,0,734.997616,0h124.373332l-62.540276,63.18653-61.772088-.365804c-49.407916,0-89.597573,40.16527-89.597573,89.548799,0,1.707085.048774,3.426363.146322,5.121255h-62.759759Z"/><path class="cls-1" d="M734.997616,304.726856c-71.087894,0-133.372108-50.139523-148.687099-119.434979h65.527675c13.473778,33.910023,46.786321,56.614253,83.159424,56.614253,41.226101,0,76.940757-27.935226,86.84185-67.941981l3.084946-12.42514h-97.401389l62.528083-63.210917,87.51249.390191c6.499116,17.192784,9.803545,35.239111,9.803545,53.651241,0,84.012966-68.356559,152.357331-152.369525,152.357331Z"/><rect class="cls-1" x="410.371027" y="125.921901" width="113.777211" height="52.870859"/><polygon class="cls-1" points="333.11324 304.726856 333.11324 0 554.241707 0 554.241707 52.883053 385.996293 52.883053 385.996293 251.843803 554.241707 251.843803 554.241707 304.726856 333.11324 304.726856"/></svg>